P1
# CREATOR: GIMP PNM Filter Version 1.1
500 18
0000000000000011000000000000000000000000000000000000000000000000000000
0000000000000000000000000000000000000000000000000000000000000000000000
0000000000000000000000000000000000000000000000000000000000000000000000
0000000000000000000000000000000000000000111100000111000000000000000000
0000000000000000000000000000000000000000000000000000000000000000000111
0000000011110000000000000000000000000000000000000000000000000000000000
0000000011111000000000000000000000000000000000000000001111000000000000
0000000000000000000000000111100000000000000000000000000000000000000000
0000000000000000000000000000011111111110000000000000011110000000000000
0000000000000000000000000000000000000000000000000000000000000000000001
1100000000000000000000000000000000000000000000001110011111110110000000
0000000000000000000000000000000000000000000000001110000000000000000000
0000001101100000001001100000000000000000011100000000001110000111100000
0000000000000000001000100000000000000000011110000000000000000000100100
0000000000001110000000000000000000000011111111111111111111111110000000
0000000000000000000000000000000000000011000000001111000000111111001100
0000000000000000000000000000000011110000000000000000000000000000000000
0000000111011000111111111111000000000011111100111111111111100000001000
0010000000000001110000000000000000000000000000000000000011101111000000
0000000000000011100011000011100010000000111110000011011000000000101100
1100100000011111100000000001100011000000000000000001001000000000000000
0001100100000011100001101000000000000000000000000011010000000000000110
1011111111111000000000000000000000000000000000011000000000000111111110
0000000100000000000000000000000000111111111001111000000000000000000000
0000000000000000110000111110000110000100000001111000011110000000000000
0000000000001110000000001101000000000000000000000000000000000000011010
0001110111111110000001111000000111111000001100000110001000001000100000
0000100101100010000111010011000000000100000110000001111000001100111000
0000011111000100010000001011000100111110000000000000000000000001000000
0000000000001000000000111000000000000000000000000000001111000000000000
0000000000000000011100000000000011110000000110000000000000111111000000
0000000000000111111110000110000000000000000000010000011100000000000000
0000000000000000000000001100000001100100011111000000000000000000000000
0000010000000001110000001100001100000000000110000000011000010000100001
1000100000011111011100001111110000000110000000110000001000000100100001
1000001000000011000100010001100001100100010001101000000000000000000000
0000000000000000000000000000000000111111111111111111110000000011100000
0000000000000000000000000000011111110000011001100000110000000000000000
0001100000000000000000110000001101110000000000000000000001100001000000
0000000000000000000000000000000000011111100100010001000110000000000000
0001110000000001000000000010000000011001100000000000000000000000111011
0000100001000010000011000000100000001100000000001000000110000000110000
1100100001000000100000001000010001000010000100010001000110100000000000
0000000000000000000000000000000000000000000000000000000000010001110000
0110000000000000000000000000000000000000000001111111000010001110000000
0000000000000011000000000011111110000000011100000000000000000000000010
0001000000000000000000000000000000000000000000000010110001001100001110
0000001111100101101110011100000000000000000000111100000000000000000000
0000001110000010001100001000001000000000000000000000000000110000010000
0000010001100010001100000011000001100001001100001000110001001100010010
0000000000000000000000000000000000000000000000000000000000000000000000
0000011000110000000000000000000000000000000000000000000000000000001100
1000000000000000000000000111100001111000000000000000000000000000000000
0000000010001100000000000000000000000000000000000000000000001110000100
1000000011000000100010110010101011010000000000000000000000000000000000
0000000000000000010000001000100000100000100000000000000000000000000001
1000110000000001100100001001100001100111011100000100100000100010000100
1000010010000000000000000000000000000000000000000000000000000000000000
0000000000000000111110000000000000000000000110000000000000000000000000
0000000101100000000000000000000000000011111100000000000000000000000000
0000000000000000001000100000000000000000000000000000000000000000000000
1100000100100000000110000110001010001010111001000000000000000000000000
0000000001000000001110000000000000100110000010000010000000000000000000
0000000000100110000000000011110000101100001111000111000000011010000010
0010000100100000001000000000000000000000000000000000000000000000000000
0000000000000000000000000000000000000000000000000000111100000000000000
0000000000000000010100000000000000000000000000000000000000000000000000
0000000000000000000000000000100010000000000000000000000000000000000000
0000000000000000011010000000001100110000101000101001100000011110000000
0110000000000000001110000001101100000000000011110000001100011000000000
0000000000000000000011110000000000000110000011100001100100001100000000
1110000010001000010010000000100000000000000000000000000000000000000000
0000000000000000000000000000000000000000000000000000000000000010010000
0000000000000000000000000001010000000000000000000000000000000000000000
0000000000000000000000000000000000000010001000000000000000000000000000
0000000000000000000000000000111000000000011110000010100010100110000001
0011000000111100000000000001101100001100011000000000000110000000011001
0000000000000000000000111100000110000000110000000000000000001100010000
0000000000010000001101100001001000000010000000000000000000000000000000
0000000000000000000000000000000000000000000000000000000011000000010000
0110011000000000000000000000000000000111000000000000000000000000000000
0000000000000000000000000000000000000000000000001000100000000000000000
0000000000000000000000000000000000000010000000110000110000001110001110
0110000001000110000110011000000000001100010000100000110000000000000000
0000001001000000000000000000001110011000000000000111000000000100000001
1000010000000011100000000000010100000101100100001000000000000000000000
0000000000000000000000000000000000000000000000000000000000000001111111
0001111100010000100000000000000000111100000000000000000000000000000000
0000000000000000000000000000000000000000000000000000000000101110000000
0000000000001110000000000000000000000000000000000000000111100000000000
0000000110011000001100001000110000111100000000100001100010000001110000
1110000000000000110100000000000000000001100000110000000000110100000000
1100000001000001000000011010000000000001110000010100011000100000000000
0000000000000000000000000000000000000000000000000000000000000000000000
0011000001001100010001000011000000000000000110011110000000000000000000
0000000000000000000000000000000000000000000011111100000000000000000011
1000000000000000000001101100000000110000000000000000000000000000110011
0000001100000010010001100000100000100010000000011110000110000010011000
0000010001101100000001000001110000000000000000001100000001000000001110
0110000001110000001100000110000011001100000001100010000001110001100010
0000000000000000000000000000000000000000001110000001111000000000000011
1000000000011000000100100001001100000100001110000000010000001000000000
0000000000000000000000011100000000000000000000000000111000011000000000
0000000000000000000000000000001100010011000111110000001100000010000000
0000100001100000111100011000000110000110000010111000000000001100010000
0010010000000001000100011000011100000010000000000000000011100000000100
0000111000001000001101100000100000001000001000010000000110000000110010
0001110010000000000000111100000011111100001111100001101100001100110000
0000000110110000000001000000010010000100100000011001101110000011000000
1100000001100000000000000000000111011000111110000011110000000110000000
1110000000000100000000000000000000111000100001001111110001100011111110
0111100000000010000011000010010011110000000001110000001110000000000000
0111110000001001000000000100110000100011011000000000000000000000111000
0000000110000110000000100001100010000010000000110001100001000000011100
0001111000001101001000000001100110011001111000011101100010001100011110
1000011000000011110001111111111100000001001000011110000000111100001100
0010000000011100111111000000000000111000110000111110001100011001100001
1100000000001100000111111110000011110000011110100110000110100000000011
1110000011110011101111011000000100011001011001001100000100000000000000
0000000000000000000000100100000000011010000010011000110000001100010111
1111100000000000001111110000000011001100001100011000000001111100000110
0000010110000101000000100110100000000111110000111100000000011100001111
1000000011100000111111111000000000000000000000000111100000000000000000
0000000110011000000000011110000111111111111110111110000000000000011111
0000111111000000000000011111110000001111111001111111000011110000001110
0000000000000000000000000011100111000000011111000111000111111111110000
0000000000000000000000000000000011110000000000111000001111000001111111
1111111100000000000000000000000000000000000111100000011111000000000000
0000000011111111001111110111111110001110