P1
# CREATOR: GIMP PNM Filter Version 1.1
125 18
0000000000000000010000000000000000000000000000000000000000000000000000
0000000000000000000000000011110000000000000000000000000000000000000000
0010000000000000000000000000000000000000000000000000000000000000000000
0000000000000001000000000000000000000000000000000000000001000010000000
0000000000000000000000000000000000000000000000000000000000000000000000
1000000000000000000000000000000000000000001000110000000000000000011000
0000000000000000000000000000000000000000000000000000001100000000000000
0000000000000000000000000001000010000000000000000000000000000000000000
0000000000000000000000000000000000000000100000000000000000000000000000
0000000000001100010000000000000100000000000000000011111000000000000000
0000000000000000000010000100000000000000000000000000000000000000000100
0010000000000001000000000000000000010000000000000000000000000000000000
0000010000100000000000000000000000000000000000000000100011000000000000
0000000000000000000010000001000000000000000000000000000000011111110000
0000000000000000000000000000000000000100001000000001100000000000000000
0010110000000100000000000000000000000000000000000000000000000000000000
0000000000000000000000110001000000011000000000000000000000001000010000
0000000000000000000000000001110000000000000000000000000000000000000001
1000000000001000000000000000000000000000000001111110000000000000000000
0000000000000000000000000000000000000000000000000000000000000000011000
0001000000000000000000000000000000000001000000000000000000000011100000
0000000000000000000000000000000000000010000000000100000010000000000000
0000000000000000000000011000000000000000000000000000000000000000000000
0000000000000000000000000000000011111000000000000000000000000000000000
0000000111000000000000000000000000000000000000000000000000000000000000
0000000000000000000000000000000000000000000000000000000000000000000000
0000000000000000000000000000000000000000000000000000000000000000000000
0000000000000000000000000000000000000000000000000000000000000000000000
0000000000000000000000000000000000000000000000000000000000000000000000
0000000000000000000010000000000000000000000000000000000000000000000000
0000000000000000000000000000000000000000000000000000000000000000000000
0000000000000000000000000000000000000000000000000000000000000000000000
0000000000